<?xml version="1.0" encoding="UTF-8"?><svg xmlns="http://www.w3.org/2000/svg" viewBox="0 0 84.79 68.5"><defs><style>.cls-1{fill:#4b4668;opacity:0.1;}.cls-2,.cls-4,.cls-6{fill:none;stroke-linecap:round;stroke-linejoin:round;stroke-width:3px;}.cls-2,.cls-6{stroke:#ff9494;}.cls-3{fill:#ff9494;}.cls-4{stroke:#4b4668;}.cls-5{opacity:0.2;}.cls-6{opacity:0.5;}</style></defs><title>Asset 7</title><g id="Layer_2" data-name="Layer 2"><g id="Layer_1-2" data-name="Layer 1"><path class="cls-1" fill="#4b4668" opacity="0.1" d="M11.29 56.72V66h60.57l3.43-9.28h-64z"/><path class="cls-2" fill="none" stroke-linecap="round" stroke-linejoin="round" stroke-width="3px" stroke="#ff9494" d="M28.92 21.5h8"/><path class="cls-2" fill="none" stroke-linecap="round" stroke-linejoin="round" stroke-width="3px" stroke="#ff9494" d="M40.92 21.5"/><circle class="cls-3" cx="26.29" cy="51.5" r="3" fill="#ff9494"/><circle class="cls-3" cx="44.29" cy="51.5" r="3" fill="#ff9494"/><circle class="cls-3" cx="62.29" cy="51.5" r="3" fill="#ff9494"/><path class="cls-4" d="M2.29 63.53a11.9 11.9 0 0 0 16.39.39 11.87 11.87 0 0 0 15.9 0 11.87 11.87 0 0 0 15.9 0 11.87 11.87 0 0 0 15.9 0 11.87 11.87 0 0 0 15.9 0" fill="none" stroke-linecap="round" stroke-linejoin="round" stroke-width="3px" stroke="#4b4668"/><path class="cls-4" d="M11.29 62V45h38.13a5 5 0 0 0 5-5 5 5 0 0 1 5-5h23.87l-10 27" fill="none" stroke-linecap="round" stroke-linejoin="round" stroke-width="3px" stroke="#4b4668"/><path class="cls-4" d="M11.29 44.5v-4a10 10 0 0 1 10-10h20v14" fill="none" stroke-linecap="round" stroke-linejoin="round" stroke-width="3px" stroke="#4b4668"/><path class="cls-4" d="M28.92 30.5v-14a3 3 0 0 1 3-3h14a3 3 0 0 1 3 3v28" fill="none" stroke-linecap="round" stroke-linejoin="round" stroke-width="3px" stroke="#4b4668"/><circle class="cls-4" cx="24.29" cy="53.5" r="3" fill="none" stroke-linecap="round" stroke-linejoin="round" stroke-width="3px" stroke="#4b4668"/><circle class="cls-4" cx="42.29" cy="53.5" r="3" fill="none" stroke-linecap="round" stroke-linejoin="round" stroke-width="3px" stroke="#4b4668"/><circle class="cls-4" cx="60.29" cy="53.5" r="3" fill="none" stroke-linecap="round" stroke-linejoin="round" stroke-width="3px" stroke="#4b4668"/><path class="cls-4" d="M73.92 44.25a4.25 4.25 0 0 1-8.5 0" fill="none" stroke-linecap="round" stroke-linejoin="round" stroke-width="3px" stroke="#4b4668"/><path class="cls-4" fill="none" stroke-linecap="round" stroke-linejoin="round" stroke-width="3px" stroke="#4b4668" d="M69.67 47.5v-8.15"/><path class="cls-4" fill="none" stroke-linecap="round" stroke-linejoin="round" stroke-width="3px" stroke="#4b4668" d="M38.79 7.25v6"/><path class="cls-4" fill="none" stroke-linecap="round" stroke-linejoin="round" stroke-width="3px" stroke="#4b4668" d="M36.29 10.25v3"/><path class="cls-4" fill="none" stroke-linecap="round" stroke-linejoin="round" stroke-width="3px" stroke="#4b4668" d="M38.79 3.25"/><path class="cls-4" fill="none" stroke-linecap="round" stroke-linejoin="round" stroke-width="3px" stroke="#4b4668" d="M41.54 8.25v5"/><g class="cls-5" opacity="0.2"><path class="cls-4" fill="none" stroke-linecap="round" stroke-linejoin="round" stroke-width="3px" stroke="#4b4668" d="M4 24.42v5"/><path class="cls-4" fill="none" stroke-linecap="round" stroke-linejoin="round" stroke-width="3px" stroke="#4b4668" d="M6.5 26.92h-5"/></g><g class="cls-5" opacity="0.2"><path class="cls-4" fill="none" stroke-linecap="round" stroke-linejoin="round" stroke-width="3px" stroke="#4b4668" d="M73.76 23.92v5"/><path class="cls-4" fill="none" stroke-linecap="round" stroke-linejoin="round" stroke-width="3px" stroke="#4b4668" d="M76.26 26.42h-5"/></g><circle class="cls-6" cx="53.42" cy="4" r="2.5" fill="none" stroke-linecap="round" stroke-linejoin="round" stroke-width="3px" stroke="#ff9494" opacity="0.5"/></g></g><metadata><rdf:RDF xmlns:rdf="http://www.w3.org/1999/02/22-rdf-syntax-ns#" xmlns:rdfs="http://www.w3.org/2000/01/rdf-schema#" xmlns:dc="http://purl.org/dc/elements/1.1/"><rdf:Description about="https://iconscout.com/legal#licenses" dc:title="asset" dc:description="asset" dc:publisher="Iconscout" dc:date="2017-09-26" dc:format="image/svg+xml" dc:language="en"><dc:creator><rdf:Bag><rdf:li>Arzu Sendag</rdf:li></rdf:Bag></dc:creator></rdf:Description></rdf:RDF></metadata></svg>