<?xml version="1.0" encoding="UTF-8"?><svg xmlns="http://www.w3.org/2000/svg" viewBox="0 0 127.33 63.3"><defs><style>.cls-1{fill:#4b4868;opacity:0.1;}.cls-2{fill:#9797ff;}.cls-3,.cls-4,.cls-7{fill:none;}.cls-3,.cls-7{stroke:#9797ff;}.cls-3,.cls-4,.cls-5,.cls-7{stroke-linecap:round;stroke-linejoin:round;stroke-width:3px;}.cls-4,.cls-5{stroke:#4b4668;}.cls-5{fill:#fff;}.cls-6{opacity:0.2;}.cls-7{opacity:0.5;}</style></defs><title>Asset 2</title><g id="Layer_2" data-name="Layer 2"><g id="Layer_1-2" data-name="Layer 1"><path class="cls-1" d="M24 23.8V12.68h-7.5a1 1 0 0 0-1 1v29a10 10 0 0 0 10 10h89a1 1 0 0 0 1-1V43.8H44a20 20 0 0 1-20-20z" fill="#4b4868" opacity="0.1"/><rect class="cls-2" x="88.5" y="15.68" width="10" height="17" rx="1" ry="1" fill="#9797ff"/><rect class="cls-2" x="48.5" y="15.68" width="10" height="17" rx="1" ry="1" fill="#9797ff"/><rect class="cls-2" x="28.5" y="15.68" width="10" height="17" rx="1" ry="1" fill="#9797ff"/><path class="cls-3" fill="none" stroke="#9797ff" stroke-linecap="round" stroke-linejoin="round" stroke-width="3px" d="M57.5 43.3h7"/><path class="cls-3" fill="none" stroke="#9797ff" stroke-linecap="round" stroke-linejoin="round" stroke-width="3px" d="M52.5 43.3h1"/><path class="cls-4" fill="none" stroke-linecap="round" stroke-linejoin="round" stroke-width="3px" stroke="#4b4668" d="M73.75 61.8h22.42"/><path class="cls-4" fill="none" stroke-linecap="round" stroke-linejoin="round" stroke-width="3px" stroke="#4b4668" d="M20.4 61.8h36.37"/><path class="cls-4" fill="none" stroke-linecap="round" stroke-linejoin="round" stroke-width="3px" stroke="#4b4668" d="M15.5 61.8h.82"/><path class="cls-4" d="M114.5 52.68h-89a10 10 0 0 1-10-10v-29a1 1 0 0 1 1-1h89a10 10 0 0 1 10 10v29a1 1 0 0 1-1 1z" fill="none" stroke-linecap="round" stroke-linejoin="round" stroke-width="3px" stroke="#4b4668"/><circle class="cls-5" cx="35.1" cy="52.8" r="9" stroke-linecap="round" stroke-linejoin="round" stroke-width="3px" stroke="#4b4668" fill="#fff"/><circle class="cls-5" cx="95.9" cy="52.8" r="9" stroke-linecap="round" stroke-linejoin="round" stroke-width="3px" stroke="#4b4668" fill="#fff"/><path class="cls-4" d="M115.5 39.68a10 10 0 0 1-10-10v-11h16v5.62" fill="none" stroke-linecap="round" stroke-linejoin="round" stroke-width="3px" stroke="#4b4668"/><rect class="cls-4" x="85.5" y="18.68" width="10" height="17" rx="1" ry="1" fill="none" stroke-linecap="round" stroke-linejoin="round" stroke-width="3px" stroke="#4b4668"/><path class="cls-4" fill="none" stroke-linecap="round" stroke-linejoin="round" stroke-width="3px" stroke="#4b4668" d="M65.5 18.68h10v34h-10z"/><rect class="cls-4" x="45.5" y="18.68" width="10" height="17" rx="1" ry="1" fill="none" stroke-linecap="round" stroke-linejoin="round" stroke-width="3px" stroke="#4b4668"/><rect class="cls-4" x="25.5" y="18.68" width="10" height="17" rx="1" ry="1" fill="none" stroke-linecap="round" stroke-linejoin="round" stroke-width="3px" stroke="#4b4668"/><path class="cls-4" fill="none" stroke-linecap="round" stroke-linejoin="round" stroke-width="3px" stroke="#4b4668" d="M63.75 61.8h2.42"/><path class="cls-4" fill="none" stroke-linecap="round" stroke-linejoin="round" stroke-width="3px" stroke="#4b4668" d="M9.5 41.3h5"/><path class="cls-4" fill="none" stroke-linecap="round" stroke-linejoin="round" stroke-width="3px" stroke="#4b4668" d="M12.5 43.8h2"/><path class="cls-4" fill="none" stroke-linecap="round" stroke-linejoin="round" stroke-width="3px" stroke="#4b4668" d="M5.5 41.3"/><g class="cls-6" opacity="0.2"><path class="cls-4" fill="none" stroke-linecap="round" stroke-linejoin="round" stroke-width="3px" stroke="#4b4668" d="M33.33 1.5v5"/><path class="cls-4" fill="none" stroke-linecap="round" stroke-linejoin="round" stroke-width="3px" stroke="#4b4668" d="M35.83 4h-5"/></g><circle class="cls-7" cx="4" cy="23.8" r="2.5" fill="none" stroke="#9797ff" stroke-linecap="round" stroke-linejoin="round" stroke-width="3px" opacity="0.5"/><g class="cls-6" opacity="0.2"><path class="cls-4" fill="none" stroke-linecap="round" stroke-linejoin="round" stroke-width="3px" stroke="#4b4668" d="M123.33 46.5v5"/><path class="cls-4" fill="none" stroke-linecap="round" stroke-linejoin="round" stroke-width="3px" stroke="#4b4668" d="M125.83 49h-5"/></g></g></g><metadata><rdf:RDF xmlns:rdf="http://www.w3.org/1999/02/22-rdf-syntax-ns#" xmlns:rdfs="http://www.w3.org/2000/01/rdf-schema#" xmlns:dc="http://purl.org/dc/elements/1.1/"><rdf:Description about="https://iconscout.com/legal#licenses" dc:title="asset" dc:description="asset" dc:publisher="Iconscout" dc:date="2017-09-26" dc:format="image/svg+xml" dc:language="en"><dc:creator><rdf:Bag><rdf:li>Arzu Sendag</rdf:li></rdf:Bag></dc:creator></rdf:Description></rdf:RDF></metadata></svg>