<?xml version="1.0" encoding="UTF-8"?><svg xmlns="http://www.w3.org/2000/svg" viewBox="0 0 69.5 62.51"><defs><style>.cls-1{fill:#6cffc0;}.cls-2,.cls-5,.cls-7{fill:none;}.cls-2,.cls-3{stroke:#4b4668;}.cls-2,.cls-3,.cls-5,.cls-7{stroke-linecap:round;stroke-linejoin:round;stroke-width:3px;}.cls-3{fill:#fff;}.cls-4{opacity:0.2;}.cls-5,.cls-7{stroke:#6cffc0;}.cls-5{opacity:0.5;}.cls-6{fill:#4b4668;opacity:0.1;}</style></defs><title>Asset 12</title><g id="Layer_2" data-name="Layer 2"><g id="Layer_1-2" data-name="Layer 1"><path class="cls-1" fill="#6cffc0" d="M9 28.09l-9 10v-29l9 10v9z"/><path class="cls-2" fill="none" stroke="#4b4668" stroke-linecap="round" stroke-linejoin="round" stroke-width="3px" d="M12 32.09l-9 10v-29l9 10v9z"/><ellipse class="cls-3" cx="34.5" cy="28.08" rx="26.5" ry="16" stroke="#4b4668" stroke-linecap="round" stroke-linejoin="round" stroke-width="3px" fill="#fff"/><path class="cls-2" fill="none" stroke="#4b4668" stroke-linecap="round" stroke-linejoin="round" stroke-width="3px" d="M43.5 44.09v5h-18v-5"/><g class="cls-4" opacity="0.2"><path class="cls-2" fill="none" stroke="#4b4668" stroke-linecap="round" stroke-linejoin="round" stroke-width="3px" d="M9.08 56.01v5"/><path class="cls-2" fill="none" stroke="#4b4668" stroke-linecap="round" stroke-linejoin="round" stroke-width="3px" d="M11.58 58.51h-5"/></g><g class="cls-4" opacity="0.2"><path class="cls-2" fill="none" stroke="#4b4668" stroke-linecap="round" stroke-linejoin="round" stroke-width="3px" d="M11.85 1.5v5"/><path class="cls-2" fill="none" stroke="#4b4668" stroke-linecap="round" stroke-linejoin="round" stroke-width="3px" d="M14.35 4h-5"/></g><circle class="cls-5" cx="65.5" cy="11.58" r="2.5" fill="none" stroke-linecap="round" stroke-linejoin="round" stroke-width="3px" stroke="#6cffc0" opacity="0.5"/><path class="cls-6" d="M51.22 16.63a19.45 19.45 0 0 1-19.45 19.45h-22c4.58 4.78 13.14 8 22.95 8 14.64 0 26.5-7.16 26.5-16 0-4.49-3.06-8.54-8-11.45z" fill="#4b4668" opacity="0.1"/><path class="cls-7" fill="none" stroke-linecap="round" stroke-linejoin="round" stroke-width="3px" stroke="#6cffc0" d="M46 28.08h11"/><path class="cls-7" fill="none" stroke-linecap="round" stroke-linejoin="round" stroke-width="3px" stroke="#6cffc0" d="M42 28.08"/><path class="cls-2" d="M8 28.09a47.58 47.58 0 0 0 53 0 47.58 47.58 0 0 0-53 0z" fill="none" stroke="#4b4668" stroke-linecap="round" stroke-linejoin="round" stroke-width="3px"/></g></g><metadata><rdf:RDF xmlns:rdf="http://www.w3.org/1999/02/22-rdf-syntax-ns#" xmlns:rdfs="http://www.w3.org/2000/01/rdf-schema#" xmlns:dc="http://purl.org/dc/elements/1.1/"><rdf:Description about="https://iconscout.com/legal#licenses" dc:title="asset" dc:description="asset" dc:publisher="Iconscout" dc:date="2017-09-26" dc:format="image/svg+xml" dc:language="en"><dc:creator><rdf:Bag><rdf:li>Arzu Sendag</rdf:li></rdf:Bag></dc:creator></rdf:Description></rdf:RDF></metadata></svg>