<?xml version="1.0" encoding="UTF-8"?><svg xmlns="http://www.w3.org/2000/svg" viewBox="0 0 89 78"><defs><style>.cls-1{fill:#4b4668;opacity:0.1;}.cls-2,.cls-4,.cls-7{fill:none;}.cls-2,.cls-7{stroke:#f59394;}.cls-2,.cls-4,.cls-5,.cls-7{stroke-linecap:round;stroke-linejoin:round;stroke-width:3px;}.cls-3{fill:#ff9494;}.cls-4,.cls-5{stroke:#4b4668;}.cls-5{fill:#fff;}.cls-6{opacity:0.2;}.cls-7{opacity:0.5;}</style></defs><title>Asset 10</title><g id="Layer_2" data-name="Layer 2"><g id="Layer_1-2" data-name="Layer 1"><path class="cls-1" d="M82.5 35.85v1.09A12.56 12.56 0 0 1 69.94 49.5H2.85a10 10 0 0 0 8.65 5h65.7a10.2 10.2 0 0 0 10.27-9.23 10 10 0 0 0-4.97-9.42z" fill="#4b4668" opacity="0.1"/><path class="cls-2" fill="none" stroke="#f59394" stroke-linecap="round" stroke-linejoin="round" stroke-width="3px" d="M3.5 48.5h14"/><path class="cls-3" d="M65.3 34.5H43.81a.47.47 0 0 1-.43-.28L36 17.34a4.18 4.18 0 0 1 3.83-5.84 4.18 4.18 0 0 1 2.83 1.1l22.96 21.09a.47.47 0 0 1-.32.81z" fill="#ff9494"/><path class="cls-4" d="M62.5 34.5h-23L32 17.34a4.18 4.18 0 0 1 3.83-5.84 4.18 4.18 0 0 1 2.83 1.1z" fill="none" stroke-linecap="round" stroke-linejoin="round" stroke-width="3px" stroke="#4b4668"/><path class="cls-4" d="M13.5 34.5l-5-10a3.71 3.71 0 0 0-3.32-2 3.71 3.71 0 0 0-3.68 3.71V44.5a10 10 0 0 0 10 10h66a10 10 0 0 0 10-10 10 10 0 0 0-10-10z" fill="none" stroke-linecap="round" stroke-linejoin="round" stroke-width="3px" stroke="#4b4668"/><path class="cls-5" d="M39.5 48.5l-8 22.27a4.29 4.29 0 0 0 4 5.73 4.29 4.29 0 0 0 3.2-1.43L62.5 48.5" stroke-linecap="round" stroke-linejoin="round" stroke-width="3px" stroke="#4b4668" fill="#fff"/><path class="cls-4" fill="none" stroke-linecap="round" stroke-linejoin="round" stroke-width="3px" stroke="#4b4668" d="M16.5 40.5l-6-12"/><path class="cls-4" fill="none" stroke-linecap="round" stroke-linejoin="round" stroke-width="3px" stroke="#4b4668" d="M59.5 41.5"/><path class="cls-4" fill="none" stroke-linecap="round" stroke-linejoin="round" stroke-width="3px" stroke="#4b4668" d="M49.5 41.5"/><path class="cls-4" fill="none" stroke-linecap="round" stroke-linejoin="round" stroke-width="3px" stroke="#4b4668" d="M39.5 41.5"/><path class="cls-4" fill="none" stroke-linecap="round" stroke-linejoin="round" stroke-width="3px" stroke="#4b4668" d="M29.5 41.5"/><path class="cls-4" fill="none" stroke-linecap="round" stroke-linejoin="round" stroke-width="3px" stroke="#4b4668" d="M86.5 41.5h-9"/><path class="cls-4" fill="none" stroke-linecap="round" stroke-linejoin="round" stroke-width="3px" stroke="#4b4668" d="M29.5 60.5h5"/><path class="cls-4" fill="none" stroke-linecap="round" stroke-linejoin="round" stroke-width="3px" stroke="#4b4668" d="M31.5 63h2"/><path class="cls-4" fill="none" stroke-linecap="round" stroke-linejoin="round" stroke-width="3px" stroke="#4b4668" d="M29.5 28.5h7"/><path class="cls-4" fill="none" stroke-linecap="round" stroke-linejoin="round" stroke-width="3px" stroke="#4b4668" d="M31.5 26h2"/><g class="cls-6" opacity="0.2"><path class="cls-4" fill="none" stroke-linecap="round" stroke-linejoin="round" stroke-width="3px" stroke="#4b4668" d="M19.58 21.42v5"/><path class="cls-4" fill="none" stroke-linecap="round" stroke-linejoin="round" stroke-width="3px" stroke="#4b4668" d="M22.08 23.92h-5"/></g><g class="cls-6" opacity="0.2"><path class="cls-4" fill="none" stroke-linecap="round" stroke-linejoin="round" stroke-width="3px" stroke="#4b4668" d="M72.35 19.92v5"/><path class="cls-4" fill="none" stroke-linecap="round" stroke-linejoin="round" stroke-width="3px" stroke="#4b4668" d="M74.85 22.42h-5"/></g><circle class="cls-7" cx="27" cy="4" r="2.5" fill="none" stroke="#f59394" stroke-linecap="round" stroke-linejoin="round" stroke-width="3px" opacity="0.5"/></g></g><metadata><rdf:RDF xmlns:rdf="http://www.w3.org/1999/02/22-rdf-syntax-ns#" xmlns:rdfs="http://www.w3.org/2000/01/rdf-schema#" xmlns:dc="http://purl.org/dc/elements/1.1/"><rdf:Description about="https://iconscout.com/legal#licenses" dc:title="asset" dc:description="asset" dc:publisher="Iconscout" dc:date="2017-09-26" dc:format="image/svg+xml" dc:language="en"><dc:creator><rdf:Bag><rdf:li>Arzu Sendag</rdf:li></rdf:Bag></dc:creator></rdf:Description></rdf:RDF></metadata></svg>