<?xml version="1.0" encoding="UTF-8"?><svg xmlns="http://www.w3.org/2000/svg" viewBox="0 0 119.38 70"><defs><style>.cls-1{fill:#4b4668;opacity:0.1;}.cls-2,.cls-4,.cls-7{fill:none;stroke-linecap:round;stroke-linejoin:round;stroke-width:3px;}.cls-2,.cls-7{stroke:#ffc599;}.cls-3{fill:#ffc599;}.cls-4{stroke:#4b4668;}.cls-5{fill:#fff;}.cls-6{opacity:0.2;}.cls-7{opacity:0.5;}</style></defs><title>Asset 9</title><g id="Layer_2" data-name="Layer 2"><g id="Layer_1-2" data-name="Layer 1"><path class="cls-1" d="M104 37a16.5 16.5 0 0 1-16.5 16.5h-68v9H112a5 5 0 0 0 .53-.44V50.5A15 15 0 0 0 104 37z" fill="#4b4668" opacity="0.1"/><path class="cls-2" fill="none" stroke-linecap="round" stroke-linejoin="round" stroke-width="3px" stroke="#ffc599" d="M83.5 45h27"/><path class="cls-2" fill="none" stroke-linecap="round" stroke-linejoin="round" stroke-width="3px" stroke="#ffc599" d="M72.5 45h4"/><path class="cls-3" d="M58.5 14h29a3 3 0 0 1 3 3 3 3 0 0 1-3 3h-35a6 6 0 0 1 6-6z" fill="#ffc599"/><path class="cls-4" fill="none" stroke-linecap="round" stroke-linejoin="round" stroke-width="3px" stroke="#4b4668" d="M53.75 68.5h53.42"/><path class="cls-4" fill="none" stroke-linecap="round" stroke-linejoin="round" stroke-width="3px" stroke="#4b4668" d="M6.4 68.5h41.37"/><path class="cls-4" fill="none" stroke-linecap="round" stroke-linejoin="round" stroke-width="3px" stroke="#4b4668" d="M1.5 68.5h.82"/><path class="cls-4" d="M80.5 35.5V23h-31v39.5h63v-12a15 15 0 0 0-15-15z" fill="none" stroke-linecap="round" stroke-linejoin="round" stroke-width="3px" stroke="#4b4668"/><rect class="cls-4" x="95.5" y="29" height="5" fill="none" stroke-linecap="round" stroke-linejoin="round" stroke-width="3px" stroke="#4b4668"/><circle class="cls-4" cx="95.5" cy="16" fill="none" stroke-linecap="round" stroke-linejoin="round" stroke-width="3px" stroke="#4b4668"/><path class="cls-4" d="M117.88 56.5a5 5 0 0 1 0-10z" fill="none" stroke-linecap="round" stroke-linejoin="round" stroke-width="3px" stroke="#4b4668"/><path class="cls-4" fill="none" stroke-linecap="round" stroke-linejoin="round" stroke-width="3px" stroke="#4b4668" d="M57.5 35.5h24"/><path class="cls-4" d="M55.5 17h29a3 3 0 0 1 3 3 3 3 0 0 1-3 3h-35a6 6 0 0 1 6-6z" fill="none" stroke-linecap="round" stroke-linejoin="round" stroke-width="3px" stroke="#4b4668"/><rect class="cls-4" x="95.5" y="22" height="3" fill="none" stroke-linecap="round" stroke-linejoin="round" stroke-width="3px" stroke="#4b4668"/><path class="cls-4" fill="none" stroke-linecap="round" stroke-linejoin="round" stroke-width="3px" stroke="#4b4668" d="M19.5 35.5h30v27h-30z"/><path class="cls-4" fill="none" stroke-linecap="round" stroke-linejoin="round" stroke-width="3px" stroke="#4b4668" d="M34.5 61V50"/><path class="cls-4" fill="none" stroke-linecap="round" stroke-linejoin="round" stroke-width="3px" stroke="#4b4668" d="M29.5 36v8"/><path class="cls-4" fill="none" stroke-linecap="round" stroke-linejoin="round" stroke-width="3px" stroke="#4b4668" d="M39.5 37v7"/><circle class="cls-5" cx="34.5" cy="62.5" r="6" fill="#fff"/><circle class="cls-3" cx="35.5" cy="59.5" r="6" fill="#ffc599"/><circle class="cls-4" cx="34.5" cy="62.5" r="6" fill="none" stroke-linecap="round" stroke-linejoin="round" stroke-width="3px" stroke="#4b4668"/><circle class="cls-5" cx="64.5" cy="62.5" r="6" fill="#fff"/><circle class="cls-3" cx="65.5" cy="59.5" r="6" fill="#ffc599"/><circle class="cls-4" cx="64.5" cy="62.5" r="6" fill="none" stroke-linecap="round" stroke-linejoin="round" stroke-width="3px" stroke="#4b4668"/><circle class="cls-5" cx="94.5" cy="62.5" r="6" fill="#fff"/><circle class="cls-3" cx="95.5" cy="59.5" r="6" fill="#ffc599"/><circle class="cls-4" cx="94.5" cy="62.5" r="6" fill="none" stroke-linecap="round" stroke-linejoin="round" stroke-width="3px" stroke="#4b4668"/><g class="cls-6" opacity="0.2"><path class="cls-4" fill="none" stroke-linecap="round" stroke-linejoin="round" stroke-width="3px" stroke="#4b4668" d="M107.58 25.92v5"/><path class="cls-4" fill="none" stroke-linecap="round" stroke-linejoin="round" stroke-width="3px" stroke="#4b4668" d="M110.08 28.42h-5"/></g><g class="cls-6" opacity="0.2"><path class="cls-4" fill="none" stroke-linecap="round" stroke-linejoin="round" stroke-width="3px" stroke="#4b4668" d="M36.35 20.42v5"/><path class="cls-4" fill="none" stroke-linecap="round" stroke-linejoin="round" stroke-width="3px" stroke="#4b4668" d="M38.85 22.92h-5"/></g><circle class="cls-7" cx="73.5" cy="4" r="2.5" fill="none" stroke-linecap="round" stroke-linejoin="round" stroke-width="3px" stroke="#ffc599" opacity="0.5"/></g></g><metadata><rdf:RDF xmlns:rdf="http://www.w3.org/1999/02/22-rdf-syntax-ns#" xmlns:rdfs="http://www.w3.org/2000/01/rdf-schema#" xmlns:dc="http://purl.org/dc/elements/1.1/"><rdf:Description about="https://iconscout.com/legal#licenses" dc:title="asset" dc:description="asset" dc:publisher="Iconscout" dc:date="2017-09-26" dc:format="image/svg+xml" dc:language="en"><dc:creator><rdf:Bag><rdf:li>Arzu Sendag</rdf:li></rdf:Bag></dc:creator></rdf:Description></rdf:RDF></metadata></svg>