<?xml version="1.0" encoding="UTF-8"?><svg xmlns="http://www.w3.org/2000/svg" viewBox="0 0 99.13 56.58"><defs><style>.cls-1{opacity:0.1;}.cls-2{fill:#4b4868;}.cls-3{fill:#ffc599;}.cls-4,.cls-5,.cls-8{fill:none;}.cls-4,.cls-8{stroke:#ffc599;}.cls-4,.cls-5,.cls-6,.cls-8{stroke-linecap:round;stroke-linejoin:round;stroke-width:3px;}.cls-5,.cls-6{stroke:#4b4668;}.cls-6{fill:#fff;}.cls-7{opacity:0.2;}.cls-8{opacity:0.5;}</style></defs><title>Asset 3</title><g id="Layer_2" data-name="Layer 2"><g id="Layer_1-2" data-name="Layer 1"><g class="cls-1" opacity="0.1"><path class="cls-2" d="M23.65 4.15a10 10 0 0 0-8 9.8V44a2 2 0 0 0 2 2h38v-7.92h-12a20 20 0 0 1-20-20z" fill="#4b4868"/><path class="cls-2" d="M60.63 38.08V46h33a4 4 0 0 0 4-4v-3.92z" fill="#4b4868"/></g><path class="cls-3" d="M77.71 24.08h-8.06a1 1 0 0 1-1-1v-5a1 1 0 0 1 1-1h4.49a1 1 0 0 1 .81.42l3.57 5a1 1 0 0 1-.81 1.58z" fill="#ffc599"/><path class="cls-4" fill="none" stroke="#ffc599" stroke-linecap="round" stroke-linejoin="round" stroke-width="3px" d="M16.15 30.54h14"/><path class="cls-4" fill="none" stroke="#ffc599" stroke-linecap="round" stroke-linejoin="round" stroke-width="3px" d="M35.15 30.54h1"/><path class="cls-5" d="M83.13 24l-6.9-9.2a2 2 0 0 0-1.6-.8h-12a2 2 0 0 0-2 2v30h33a4 4 0 0 0 4-4V30a4 4 0 0 0-4-4h-6.5a5 5 0 0 1-4-2z" fill="none" stroke-linecap="round" stroke-linejoin="round" stroke-width="3px" stroke="#4b4668"/><circle class="cls-6" cx="79.13" cy="46.08" r="9" stroke-linecap="round" stroke-linejoin="round" stroke-width="3px" stroke="#4b4668" fill="#fff"/><path class="cls-5" fill="none" stroke-linecap="round" stroke-linejoin="round" stroke-width="3px" stroke="#4b4668" d="M66.15 30.54h4"/><path class="cls-5" fill="none" stroke-linecap="round" stroke-linejoin="round" stroke-width="3px" stroke="#4b4668" d="M57.4 55.08h35.43"/><path class="cls-5" fill="none" stroke-linecap="round" stroke-linejoin="round" stroke-width="3px" stroke="#4b4668" d="M21.05 55.08h29.38"/><path class="cls-5" fill="none" stroke-linecap="round" stroke-linejoin="round" stroke-width="3px" stroke="#4b4668" d="M16.15 55.08h.82"/><path class="cls-5" d="M75.21 26.08h-8.06a1 1 0 0 1-1-1v-5a1 1 0 0 1 1-1h4.49a1 1 0 0 1 .81.42l3.57 5a1 1 0 0 1-.81 1.58z" fill="none" stroke-linecap="round" stroke-linejoin="round" stroke-width="3px" stroke="#4b4668"/><path class="cls-5" fill="none" stroke-linecap="round" stroke-linejoin="round" stroke-width="3px" stroke="#4b4668" d="M10.15 34.58h5"/><path class="cls-5" fill="none" stroke-linecap="round" stroke-linejoin="round" stroke-width="3px" stroke="#4b4668" d="M13.15 37.08h2"/><path class="cls-5" fill="none" stroke-linecap="round" stroke-linejoin="round" stroke-width="3px" stroke="#4b4668" d="M6.15 34.58"/><g class="cls-7" opacity="0.2"><path class="cls-5" fill="none" stroke-linecap="round" stroke-linejoin="round" stroke-width="3px" stroke="#4b4668" d="M64.24 1.5v5"/><path class="cls-5" fill="none" stroke-linecap="round" stroke-linejoin="round" stroke-width="3px" stroke="#4b4668" d="M66.74 4h-5"/></g><g class="cls-7" opacity="0.2"><path class="cls-5" fill="none" stroke-linecap="round" stroke-linejoin="round" stroke-width="3px" stroke="#4b4668" d="M4 21.99v5"/><path class="cls-5" fill="none" stroke-linecap="round" stroke-linejoin="round" stroke-width="3px" stroke="#4b4668" d="M6.5 24.49h-5"/></g><circle class="cls-8" cx="88.65" cy="17.08" r="2.5" fill="none" stroke="#ffc599" stroke-linecap="round" stroke-linejoin="round" stroke-width="3px" opacity="0.5"/><path class="cls-5" d="M15.63 14v30a2 2 0 0 0 2 2h38V6a2 2 0 0 0-2-2h-28a10 10 0 0 0-10 10z" fill="none" stroke-linecap="round" stroke-linejoin="round" stroke-width="3px" stroke="#4b4668"/><circle class="cls-6" cx="35.63" cy="46.08" r="9" stroke-linecap="round" stroke-linejoin="round" stroke-width="3px" stroke="#4b4668" fill="#fff"/></g></g><metadata><rdf:RDF xmlns:rdf="http://www.w3.org/1999/02/22-rdf-syntax-ns#" xmlns:rdfs="http://www.w3.org/2000/01/rdf-schema#" xmlns:dc="http://purl.org/dc/elements/1.1/"><rdf:Description about="https://iconscout.com/legal#licenses" dc:title="asset" dc:description="asset" dc:publisher="Iconscout" dc:date="2017-09-26" dc:format="image/svg+xml" dc:language="en"><dc:creator><rdf:Bag><rdf:li>Arzu Sendag</rdf:li></rdf:Bag></dc:creator></rdf:Description></rdf:RDF></metadata></svg>