<?xml version="1.0" encoding="UTF-8" standalone="no"?>
<svg xmlns:dc="http://purl.org/dc/elements/1.1/" xmlns:cc="http://creativecommons.org/ns#" xmlns:rdf="http://www.w3.org/1999/02/22-rdf-syntax-ns#" xmlns:svg="http://www.w3.org/2000/svg" xmlns="http://www.w3.org/2000/svg" xmlns:sodipodi="http://sodipodi.sourceforge.net/DTD/sodipodi-0.dtd" xmlns:inkscape="http://www.inkscape.org/namespaces/inkscape" width="16px" height="16px" viewBox="0 0 16 16" id="svg2" version="1.1" inkscape:version="0.91 r13725" sodipodi:docname="36.svg">
  <defs id="defs4">
    <pattern y="0" x="0" height="6" width="6" patternUnits="userSpaceOnUse" id="EMFhbasepattern"/>
    <pattern y="0" x="0" height="6" width="6" patternUnits="userSpaceOnUse" id="EMFhbasepattern-4"/>
    <pattern y="0" x="0" height="6" width="6" patternUnits="userSpaceOnUse" id="EMFhbasepattern-3"/>
    <pattern y="0" x="0" height="6" width="6" patternUnits="userSpaceOnUse" id="EMFhbasepattern-8"/>
  </defs>
  <sodipodi:namedview id="base" pagecolor="#ffffff" bordercolor="#666666" borderopacity="1.0" inkscape:pageopacity="0.0" inkscape:pageshadow="2" inkscape:zoom="5.6568543" inkscape:cx="-8.3772593" inkscape:cy="22.582772" inkscape:document-units="px" inkscape:current-layer="g5228" showgrid="true" units="px" inkscape:window-width="1366" inkscape:window-height="715" inkscape:window-x="-8" inkscape:window-y="-8" inkscape:window-maximized="1" inkscape:snap-bbox="true" inkscape:bbox-paths="true" inkscape:bbox-nodes="true" inkscape:snap-bbox-edge-midpoints="true" inkscape:snap-bbox-midpoints="true">
    <inkscape:grid type="xygrid" id="grid3336"/>
  </sodipodi:namedview>
  
  <g inkscape:label="Layer 1" inkscape:groupmode="layer" id="layer1" transform="translate(0,-1036.3622)">
    <g transform="translate(628,-140.49998)" id="g5228">
      <path style="color:#000000;font-style:normal;font-variant:normal;font-weight:normal;font-stretch:normal;font-size:medium;line-height:normal;font-family:sans-serif;text-indent:0;text-align:start;text-decoration:none;text-decoration-line:none;text-decoration-style:solid;text-decoration-color:#000000;letter-spacing:normal;word-spacing:normal;text-transform:none;direction:ltr;block-progression:tb;writing-mode:lr-tb;baseline-shift:baseline;text-anchor:start;white-space:normal;clip-rule:nonzero;display:inline;overflow:visible;visibility:visible;opacity:1;isolation:auto;mix-blend-mode:normal;color-interpolation:sRGB;color-interpolation-filters:linearRGB;solid-color:#000000;solid-opacity:1;fill:#000000;fill-opacity:1;fill-rule:nonzero;stroke:none;stroke-width:1;stroke-linecap:round;stroke-linejoin:round;stroke-miterlimit:4;stroke-dasharray:none;stroke-dashoffset:0;stroke-opacity:1;color-rendering:auto;image-rendering:auto;shape-rendering:auto;text-rendering:auto;enable-background:accumulate" d="M 7.5976562 2.0078125 C 5.2666949 2.1308115 3.2101869 3.7083187 2.5839844 5.9960938 A 0.50011829 0.50011829 0 0 0 3.5488281 6.2597656 C 4.1316281 4.1304656 6.2356519 2.7494625 8.4824219 3.0390625 C 10.489769 3.2977984 12.022324 4.8139262 12.328125 6.7050781 L 12.033203 6.4140625 A 0.50005 0.50005 0 0 0 11.673828 6.2636719 A 0.50005 0.50005 0 0 0 11.330078 7.125 L 12.541016 8.3203125 A 0.50005 0.50005 0 0 0 13.244141 8.3203125 L 14.453125 7.125 A 0.50005 0.50005 0 1 0 13.751953 6.4140625 L 13.337891 6.8222656 C 13.069892 4.3724373 11.140038 2.3730799 8.609375 2.046875 C 8.2685137 2.0029375 7.9306507 1.9902412 7.5976562 2.0078125 z M 3.0976562 8.0019531 A 0.50005 0.50005 0 0 0 2.7558594 8.1445312 L 1.546875 9.3398438 A 0.50005 0.50005 0 1 0 2.2480469 10.052734 L 2.6621094 9.6445312 C 2.9313918 12.092968 4.8610097 14.091899 7.390625 14.417969 C 10.117545 14.769469 12.700406 13.08345 13.416016 10.46875 A 0.50011829 0.50011829 0 0 0 12.451172 10.205078 C 11.868412 12.334378 9.7643781 13.717334 7.5175781 13.427734 C 5.5114794 13.169159 3.9790217 11.651567 3.671875 9.7617188 L 3.9667969 10.052734 A 0.50065061 0.50065061 0 0 0 4.6699219 9.3398438 L 3.4589844 8.1445312 A 0.50005 0.50005 0 0 0 3.0976562 8.0019531 z " transform="translate(-628,1176.8622)" id="path4442"/>
    </g>
  </g>

	
	
	
	<metadata>
		<rdf:RDF xmlns:rdf="http://www.w3.org/1999/02/22-rdf-syntax-ns#" xmlns:rdfs="http://www.w3.org/2000/01/rdf-schema#" xmlns:dc="http://purl.org/dc/elements/1.1/">
			<rdf:Description about="https://iconscout.com/legal#licenses" dc:title="Refresh, Sync, Reload, Trade, Exchange, Rotate, Update" dc:description="Refresh, Sync, Reload, Trade, Exchange, Rotate, Update" dc:publisher="Iconscout" dc:date="2016-12-14" dc:format="image/svg+xml" dc:language="en">
				<dc:creator>
					<rdf:Bag>
						<rdf:li>Jemis Mali</rdf:li>
					</rdf:Bag>
				</dc:creator>
			</rdf:Description>
		</rdf:RDF>
    </metadata></svg>
