<svg xmlns="http://www.w3.org/2000/svg" viewBox="0 0 34.54 32.9"><defs><style>.cls-1{fill:#fd9;}</style></defs><title>Asset 1</title><g id="Layer_2" data-name="Layer 2"><g id="Layer_1-2" data-name="Layer 1"><path class="cls-1" d="M34.41,12.34A2.28,2.28,0,0,0,32.7,11l-9.94-.69L19,1.37a1.76,1.76,0,0,0-3.43,0l-3.77,8.91L1.85,11A3.42,3.42,0,0,0,.13,12.34c-.34.69,0,1.37.69,2.06l7.54,6.51L6,30.51a1.36,1.36,0,0,0,.34,1.71,2.6,2.6,0,0,0,1.37.69,1.26,1.26,0,0,0,1-.34l8.57-5.14,8.57,5.14a1.26,1.26,0,0,0,1,.34,1.78,1.78,0,0,0,1.37-.69,1.51,1.51,0,0,0,.34-1.71l-2.4-9.6,7.54-6.51A1.65,1.65,0,0,0,34.41,12.34Z"/></g></g></svg>