<?xml version="1.0" encoding="utf-8"?>
<!-- Generator: Adobe Illustrator 21.1.0, SVG Export Plug-In . SVG Version: 6.00 Build 0)  -->
<svg version="1.1" id="Layer_1" xmlns="http://www.w3.org/2000/svg" xmlns:xlink="http://www.w3.org/1999/xlink" x="0px" y="0px"
	 viewBox="0 0 10.8 10.3" style="enable-background:new 0 0 10.8 10.3;" xml:space="preserve">
<style type="text/css">
	.st0{fill:#FFFF00;stroke:#FFFF00;stroke-width:0.6232;stroke-miterlimit:10;}
</style>
<path class="st0" d="M9.5,4.2C9.5,4,9.3,3.9,9.1,3.9L6.7,3.7L5.8,1.5C5.7,1.3,5.6,1.2,5.4,1.2C5.2,1.2,5,1.3,4.9,1.5L4,3.7L1.7,3.9
	C1.5,3.9,1.3,4,1.2,4.2c-0.1,0.2,0,0.4,0.2,0.5l1.8,1.5L2.7,8.5C2.6,8.8,2.7,8.9,2.7,9c0.1,0.1,0.2,0.2,0.3,0.2c0.1,0,0.2,0,0.3-0.1
	l2-1.2l2,1.2c0.1,0.1,0.2,0.1,0.3,0.1C7.8,9.1,7.9,9.1,8,9c0.1-0.1,0.1-0.2,0.1-0.4L7.5,6.2l1.8-1.5C9.5,4.6,9.6,4.4,9.5,4.2z"/>
</svg>
