<?xml version="1.0" encoding="utf-8"?>
<!-- Generator: Adobe Illustrator 21.1.0, SVG Export Plug-In . SVG Version: 6.00 Build 0)  -->
<svg version="1.1" id="Layer_1" xmlns="http://www.w3.org/2000/svg" xmlns:xlink="http://www.w3.org/1999/xlink" x="0px" y="0px"
	 viewBox="0 0 10.8 10.4" style="enable-background:new 0 0 10.8 10.4;" xml:space="preserve">
<style type="text/css">
	.st0{fill:#FCEE21;stroke:#FCEE21;stroke-width:0.7558;stroke-miterlimit:10;}
</style>
<path class="st0" d="M10.4,4c-0.1-0.2-0.3-0.4-0.5-0.4L7,3.4L5.9,0.8C5.8,0.5,5.6,0.4,5.4,0.4C5.2,0.4,5,0.5,4.9,0.8L3.8,3.4
	L0.9,3.6C0.7,3.7,0.5,3.8,0.4,4c-0.1,0.2,0,0.4,0.2,0.6l2.2,1.9L2.1,9.3c-0.1,0.3,0,0.4,0.1,0.5C2.3,9.9,2.5,10,2.6,10
	c0.1,0,0.2,0,0.3-0.1l2.5-1.5l2.5,1.5C8,10,8.1,10,8.2,10c0.2,0,0.3-0.1,0.4-0.2c0.1-0.1,0.2-0.3,0.1-0.5L8,6.5l2.2-1.9
	C10.4,4.5,10.5,4.2,10.4,4z"/>
</svg>
